<svg width="21" height="20" viewBox="0 0 21 20" fill="none" xmlns="http://www.w3.org/2000/svg">
<path d="M10.5003 18.3332C15.1027 18.3332 18.8337 14.6022 18.8337 9.99984C18.8337 5.39746 15.1027 1.6665 10.5003 1.6665C5.89795 1.6665 2.16699 5.39746 2.16699 9.99984C2.16699 14.6022 5.89795 18.3332 10.5003 18.3332Z" stroke="white" stroke-width="1.5"/>
<path d="M10.5003 18.3332C15.1027 18.3332 18.8337 14.6022 18.8337 9.99984C18.8337 5.39746 15.1027 1.6665 10.5003 1.6665C5.89795 1.6665 2.16699 5.39746 2.16699 9.99984C2.16699 14.6022 5.89795 18.3332 10.5003 18.3332Z" stroke="url(#paint0_linear_1501_3622)" stroke-width="1.5"/>
<path d="M10.5 13.3332L13.8333 9.99984L10.5 6.6665" stroke="white"/>
<path d="M10.5 13.3332L13.8333 9.99984L10.5 6.6665" stroke="url(#paint1_linear_1501_3622)"/>
<path d="M7.16699 10H13.8337" stroke="white"/>
<path d="M7.16699 10H13.8337" stroke="url(#paint2_linear_1501_3622)"/>
<defs>
<linearGradient id="paint0_linear_1501_3622" x1="10.5003" y1="1.6665" x2="10.5003" y2="18.3332" gradientUnits="userSpaceOnUse">
<stop stop-color="white"/>
<stop offset="1" stop-color="white" stop-opacity="0"/>
</linearGradient>
<linearGradient id="paint1_linear_1501_3622" x1="12.1667" y1="6.6665" x2="12.1667" y2="13.3332" gradientUnits="userSpaceOnUse">
<stop stop-color="white"/>
<stop offset="1" stop-color="white" stop-opacity="0"/>
</linearGradient>
<linearGradient id="paint2_linear_1501_3622" x1="10.5003" y1="10" x2="10.5003" y2="11" gradientUnits="userSpaceOnUse">
<stop stop-color="white"/>
<stop offset="1" stop-color="white" stop-opacity="0"/>
</linearGradient>
</defs>
</svg>
