<svg width="11" height="12" viewBox="0 0 11 12" fill="none" xmlns="http://www.w3.org/2000/svg">
<path d="M5.5 0.285706C5.30023 0.285877 5.10245 0.325357 4.91798 0.401885C4.73352 0.478413 4.56598 0.590488 4.42497 0.731697C4.28395 0.872905 4.17222 1.04048 4.09617 1.22482C4.02012 1.40917 3.98124 1.60667 3.98176 1.80602V2.04193C3.25039 2.35004 2.62645 2.86674 2.18814 3.52725C1.74984 4.18777 1.51668 4.9627 1.51789 5.75491V7.56618C1.19271 7.65775 0.911784 7.8638 0.727132 8.14618C0.54248 8.42856 0.466608 8.76814 0.513562 9.10204C0.560516 9.43595 0.727116 9.74158 0.982518 9.96233C1.23792 10.1831 1.56483 10.304 1.90271 10.3027H3.68888C3.78679 10.7048 4.01706 11.0624 4.34282 11.3183C4.66857 11.5742 5.07096 11.7137 5.48555 11.7143H5.51445C5.92904 11.7137 6.33143 11.5742 6.65718 11.3183C6.98294 11.0624 7.21321 10.7048 7.31112 10.3027H9.09729C9.43518 10.304 9.76208 10.1831 10.0175 9.96233C10.2729 9.74158 10.4395 9.43595 10.4864 9.10204C10.5334 8.76814 10.4575 8.42856 10.2729 8.14618C10.0882 7.8638 9.80729 7.65775 9.48211 7.56618V5.75491C9.48332 4.9627 9.25016 4.18777 8.81186 3.52725C8.37355 2.86674 7.74961 2.35004 7.01824 2.04193V1.80602C7.01876 1.60667 6.97988 1.40917 6.90383 1.22482C6.82778 1.04048 6.71605 0.872905 6.57504 0.731697C6.43402 0.590488 6.26648 0.478413 6.08202 0.401885C5.89755 0.325357 5.69977 0.285877 5.5 0.285706ZM4.76977 1.80602C4.77776 1.61827 4.85811 1.44086 4.99406 1.31084C5.13001 1.18081 5.31104 1.10821 5.49934 1.10821C5.68765 1.10821 5.86868 1.18081 6.00463 1.31084C6.14057 1.44086 6.22093 1.61827 6.22892 1.80602C5.74687 1.71434 5.25181 1.71434 4.76977 1.80602ZM9.70275 8.90694C9.70275 8.98697 9.68695 9.06622 9.65626 9.14016C9.62557 9.2141 9.58059 9.28128 9.52388 9.33787C9.46717 9.39447 9.39984 9.43936 9.32575 9.46998C9.25165 9.50061 9.17224 9.51637 9.09204 9.51637H1.90271C1.74074 9.51637 1.5854 9.45217 1.47087 9.33787C1.35634 9.22358 1.292 9.06857 1.292 8.90694C1.292 8.74531 1.35634 8.59029 1.47087 8.476C1.5854 8.36171 1.74074 8.2975 1.90271 8.2975H9.09729C9.25824 8.29922 9.41204 8.36415 9.52536 8.47822C9.63868 8.59229 9.70241 8.74631 9.70275 8.90694ZM8.68884 5.76146V7.51769H2.30591V5.75491C2.30591 5.33633 2.38853 4.92185 2.54905 4.53513C2.70956 4.14842 2.94484 3.79704 3.24144 3.50106C3.53804 3.20508 3.89015 2.9703 4.27767 2.81012C4.6652 2.64993 5.08055 2.56749 5.5 2.56749C5.91945 2.56749 6.3348 2.64993 6.72233 2.81012C7.10985 2.9703 7.46196 3.20508 7.75856 3.50106C8.05516 3.79704 8.29044 4.14842 8.45095 4.53513C8.61147 4.92185 8.69409 5.33633 8.69409 5.75491L8.68884 5.76146Z" fill="#59AFA7"/>
</svg>
