<svg width="45" height="49" viewBox="0 0 45 49" fill="none" xmlns="http://www.w3.org/2000/svg">
<path d="M22.5002 10C22.0008 10.0004 21.5064 10.0991 21.0452 10.2904C20.584 10.4818 20.1652 10.762 19.8127 11.115C19.4601 11.468 19.1808 11.8869 18.9907 12.3478C18.8005 12.8087 18.7033 13.3024 18.7046 13.8008V14.3906C16.8762 15.1608 15.3164 16.4526 14.2206 18.1039C13.1248 19.7552 12.5419 21.6925 12.545 23.673V28.2012C11.732 28.4301 11.0297 28.9452 10.5681 29.6512C10.1064 30.3571 9.91676 31.2061 10.0341 32.0408C10.1515 32.8756 10.568 33.6397 11.2065 34.1916C11.845 34.7435 12.6623 35.0458 13.507 35.0426H17.9724C18.2172 36.0477 18.7929 36.9417 19.6073 37.5815C20.4217 38.2213 21.4276 38.5699 22.4641 38.5714H22.5364C23.5728 38.5699 24.5788 38.2213 25.3932 37.5815C26.2076 36.9417 26.7833 36.0477 27.0281 35.0426H31.4935C32.3382 35.0458 33.1554 34.7435 33.7939 34.1916C34.4325 33.6397 34.849 32.8756 34.9663 32.0408C35.0837 31.2061 34.894 30.3571 34.4324 29.6512C33.9708 28.9452 33.2685 28.4301 32.4555 28.2012V23.673C32.4585 21.6925 31.8756 19.7552 30.7799 18.1039C29.6841 16.4526 28.1243 15.1608 26.2959 14.3906V13.8008C26.2971 13.3024 26.2 12.8087 26.0098 12.3478C25.8197 11.8869 25.5404 11.468 25.1878 11.115C24.8353 10.762 24.4165 10.4818 23.9553 10.2904C23.4941 10.0991 22.9997 10.0004 22.5002 10ZM20.6747 13.8008C20.6946 13.3314 20.8955 12.8879 21.2354 12.5628C21.5753 12.2378 22.0278 12.0563 22.4986 12.0563C22.9694 12.0563 23.4219 12.2378 23.7618 12.5628C24.1017 12.8879 24.3026 13.3314 24.3225 13.8008C23.1174 13.5716 21.8798 13.5716 20.6747 13.8008ZM33.0071 31.5531C33.0071 31.7532 32.9676 31.9513 32.8909 32.1361C32.8142 32.321 32.7017 32.4889 32.5599 32.6304C32.4182 32.7719 32.2499 32.8841 32.0646 32.9607C31.8794 33.0373 31.6808 33.0767 31.4803 33.0767H13.507C13.1021 33.0767 12.7137 32.9162 12.4274 32.6304C12.1411 32.3447 11.9802 31.9572 11.9802 31.5531C11.9802 31.149 12.1411 30.7615 12.4274 30.4757C12.7137 30.19 13.1021 30.0295 13.507 30.0295H31.4935C31.8959 30.0338 32.2803 30.1961 32.5636 30.4813C32.8469 30.7665 33.0063 31.1515 33.0071 31.5531ZM30.4723 23.6894V28.08H14.515V23.673C14.515 22.6266 14.7216 21.5904 15.1229 20.6236C15.5242 19.6568 16.1123 18.7783 16.8538 18.0384C17.5953 17.2984 18.4756 16.7115 19.4444 16.311C20.4132 15.9106 21.4516 15.7045 22.5002 15.7045C23.5489 15.7045 24.5872 15.9106 25.5561 16.311C26.5249 16.7115 27.4052 17.2984 28.1467 18.0384C28.8881 18.7783 29.4763 19.6568 29.8776 20.6236C30.2789 21.5904 30.4855 22.6266 30.4855 23.673L30.4723 23.6894Z" fill="#F5FCFA"/>
</svg>
