<svg width="17" height="18" viewBox="0 0 17 18" fill="none" xmlns="http://www.w3.org/2000/svg">
<path d="M14.1667 6.625H7.79167C7.00926 6.625 6.375 7.25926 6.375 8.04167V14.4167C6.375 15.1991 7.00926 15.8333 7.79167 15.8333H14.1667C14.9491 15.8333 15.5833 15.1991 15.5833 14.4167V8.04167C15.5833 7.25926 14.9491 6.625 14.1667 6.625Z" stroke="#F5FCFA"/>
<path d="M3.54155 10.875H2.83322C2.45749 10.875 2.09716 10.7257 1.83148 10.46C1.56581 10.1943 1.41655 9.83402 1.41655 9.45829V3.08329C1.41655 2.70757 1.56581 2.34723 1.83148 2.08156C2.09716 1.81588 2.45749 1.66663 2.83322 1.66663H9.20822C9.58394 1.66663 9.94427 1.81588 10.21 2.08156C10.4756 2.34723 10.6249 2.70757 10.6249 3.08329V3.79163" stroke="#F5FCFA"/>
</svg>
