<svg width="54" height="61" viewBox="0 0 54 61" fill="none" xmlns="http://www.w3.org/2000/svg">
<path d="M17.0175 6.4625C13.446 7.44681 9.8987 8.51712 6.37877 9.6725C6.05735 9.77662 5.77164 9.96891 5.55418 10.2275C5.33672 10.486 5.19625 10.8005 5.14877 11.135C3.07127 26.7238 7.87127 38.0975 13.5975 45.59C16.022 48.794 18.9128 51.6166 22.1738 53.9637C23.4713 54.8787 24.6188 55.5387 25.5225 55.9625C25.9725 56.1763 26.34 56.3187 26.6213 56.405C26.7443 56.4481 26.8711 56.4795 27 56.4987C27.1274 56.478 27.2529 56.4467 27.375 56.405C27.66 56.3187 28.0275 56.1763 28.4775 55.9625C29.3775 55.5387 30.5288 54.875 31.8263 53.9637C35.0872 51.6165 37.9781 48.7939 40.4025 45.59C46.1288 38.1012 50.9288 26.7238 48.8513 11.135C48.8042 10.8003 48.6639 10.4857 48.4464 10.227C48.2289 9.96841 47.9429 9.77623 47.6213 9.6725C45.18 8.87375 41.0588 7.5725 36.9825 6.46625C32.82 5.3375 28.9913 4.50125 27 4.50125C25.0125 4.50125 21.18 5.3375 17.0175 6.46625V6.4625ZM16.02 2.6C20.0888 1.49375 24.4125 0.5 27 0.5C29.5875 0.5 33.9113 1.49375 37.98 2.6C42.1425 3.725 46.3388 5.05625 48.8063 5.8625C49.8379 6.20319 50.7526 6.82799 51.4451 7.66513C52.1376 8.50226 52.5799 9.51777 52.7213 10.595C54.9563 27.3838 49.77 39.8263 43.4775 48.0575C40.8092 51.5787 37.6275 54.6795 34.0388 57.2563C32.7979 58.1479 31.4831 58.932 30.1088 59.6C29.0588 60.095 27.93 60.5 27 60.5C26.07 60.5 24.945 60.095 23.8913 59.6C22.5169 58.932 21.2022 58.1479 19.9613 57.2563C16.3726 54.6794 13.191 51.5786 10.5225 48.0575C4.23002 39.8263 -0.95623 27.3838 1.27877 10.595C1.4201 9.51777 1.86243 8.50226 2.55496 7.66513C3.24749 6.82799 4.16211 6.20319 5.19377 5.8625C8.77574 4.68803 12.3855 3.60022 16.02 2.6Z" fill="#E99022"/>
<path d="M37.7029 19.7972C37.8775 19.9714 38.0161 20.1783 38.1106 20.4061C38.2051 20.6339 38.2538 20.8781 38.2538 21.1247C38.2538 21.3714 38.2051 21.6156 38.1106 21.8434C38.0161 22.0712 37.8775 22.2781 37.7029 22.4523L26.4529 33.7023C26.2787 33.8769 26.0718 34.0154 25.844 34.1099C25.6162 34.2044 25.372 34.2531 25.1254 34.2531C24.8788 34.2531 24.6346 34.2044 24.4068 34.1099C24.179 34.0154 23.9721 33.8769 23.7979 33.7023L18.1729 28.0773C17.9986 27.9029 17.8603 27.696 17.766 27.4682C17.6716 27.2404 17.623 26.9963 17.623 26.7498C17.623 26.5032 17.6716 26.2591 17.766 26.0313C17.8603 25.8035 17.9986 25.5966 18.1729 25.4222C18.3472 25.2479 18.5542 25.1096 18.782 25.0153C19.0098 24.9209 19.2539 24.8724 19.5004 24.8724C19.747 24.8724 19.9911 24.9209 20.2189 25.0153C20.4466 25.1096 20.6536 25.2479 20.8279 25.4222L25.1254 29.7235L35.0479 19.7972C35.2221 19.6226 35.429 19.4841 35.6568 19.3896C35.8846 19.2951 36.1288 19.2464 36.3754 19.2464C36.622 19.2464 36.8662 19.2951 37.094 19.3896C37.3218 19.4841 37.5287 19.6226 37.7029 19.7972Z" fill="#E99022"/>
</svg>
