<svg width="31" height="24" viewBox="0 0 31 24" fill="none" xmlns="http://www.w3.org/2000/svg">
<g clip-path="url(#clip0_1322_4088)">
<path d="M0.6875 20.7954C0.6875 21.6049 1.35922 22.2613 2.1875 22.2613H29.1875C30.0158 22.2613 30.6875 21.6049 30.6875 20.7954V6.13631H0.6875V20.7954ZM21.6875 11.267C21.6875 10.862 22.0231 10.534 22.4375 10.534H26.9375C27.3519 10.534 27.6875 10.862 27.6875 11.267V12.7329C27.6875 13.1379 27.3519 13.4659 26.9375 13.4659H22.4375C22.0231 13.4659 21.6875 13.1379 21.6875 12.7329V11.267ZM21.6875 16.7642C21.6875 16.5617 21.8553 16.3977 22.0625 16.3977H27.3125C27.5197 16.3977 27.6875 16.5617 27.6875 16.7642V17.4971C27.6875 17.6996 27.5197 17.8636 27.3125 17.8636H22.0625C21.8553 17.8636 21.6875 17.6996 21.6875 17.4971V16.7642ZM3.6875 12.3664C3.6875 12.1639 3.85531 11.9999 4.0625 11.9999H18.3125C18.5197 11.9999 18.6875 12.1639 18.6875 12.3664V13.0994C18.6875 13.3019 18.5197 13.4659 18.3125 13.4659H4.0625C3.85531 13.4659 3.6875 13.3019 3.6875 13.0994V12.3664ZM3.6875 16.7642C3.6875 16.5617 3.85531 16.3977 4.0625 16.3977H12.3125C12.5197 16.3977 12.6875 16.5617 12.6875 16.7642V17.4971C12.6875 17.6996 12.5197 17.8636 12.3125 17.8636H4.0625C3.85531 17.8636 3.6875 17.6996 3.6875 17.4971V16.7642ZM29.9375 1.73859H1.4375C1.02312 1.73859 0.6875 2.06658 0.6875 2.47154V4.6704H30.6875V2.47154C30.6875 2.06658 30.3519 1.73859 29.9375 1.73859Z" fill="#264F4B"/>
</g>
<defs>
<clipPath id="clip0_1322_4088">
<rect width="30" height="23.4545" fill="white" transform="translate(0.6875 0.272705)"/>
</clipPath>
</defs>
</svg>
