<svg width="49" height="49" viewBox="0 0 49 49" fill="none" xmlns="http://www.w3.org/2000/svg">
<path d="M35.8984 8.61877C35.0084 8.61877 34.1384 8.88269 33.3984 9.37716C32.6584 9.87163 32.0816 10.5744 31.741 11.3967C31.4004 12.219 31.3113 13.1238 31.4849 13.9967C31.6585 14.8696 32.0871 15.6714 32.7165 16.3008C33.3458 16.9301 34.1476 17.3587 35.0205 17.5323C35.8934 17.7059 36.7982 17.6168 37.6205 17.2762C38.4428 16.9356 39.1456 16.3589 39.64 15.6188C40.1345 14.8788 40.3984 14.0088 40.3984 13.1188C40.3971 11.9257 39.9226 10.7819 39.0789 9.93827C38.2353 9.09465 37.0915 8.62012 35.8984 8.61877ZM35.8984 16.1188C35.3051 16.1188 34.7251 15.9428 34.2317 15.6132C33.7384 15.2835 33.3539 14.815 33.1268 14.2668C32.8997 13.7186 32.8403 13.1154 32.9561 12.5335C33.0718 11.9516 33.3576 11.417 33.7771 10.9975C34.1967 10.5779 34.7312 10.2922 35.3132 10.1764C35.8951 10.0607 36.4983 10.1201 37.0465 10.3471C37.5947 10.5742 38.0632 10.9587 38.3928 11.4521C38.7225 11.9454 38.8984 12.5254 38.8984 13.1188C38.8975 13.9141 38.5812 14.6767 38.0188 15.2391C37.4563 15.8015 36.6938 16.1179 35.8984 16.1188Z" fill="#F5FCFA"/>
<path d="M24.5573 25.0278L25.4361 24.1491L24.3755 23.0884L23.4967 23.9671C22.6002 24.8617 21.8632 25.9029 21.3174 27.0457L22.6711 27.6918C23.1435 26.7029 23.7815 25.8019 24.5573 25.0278Z" fill="#F5FCFA"/>
<path d="M20.344 30.2618L21.8286 30.4757C21.8966 30.0047 21.999 29.5394 22.135 29.0834L20.6978 28.6542C20.5407 29.1807 20.4225 29.718 20.344 30.2618Z" fill="#F5FCFA"/>
<path d="M46.3985 1.86883H43.865C41.9533 1.8636 40.0597 2.23759 38.2936 2.96914C36.5275 3.70069 34.924 4.77528 33.576 6.1307C32.1321 7.57633 30.8375 9.16372 29.7118 10.8688H27.0805C25.9727 10.8658 24.8754 11.0825 23.8519 11.5064C22.8285 11.9304 21.8993 12.5531 21.1181 13.3385C20.9775 13.4792 20.8985 13.6699 20.8985 13.8688C20.8985 14.0677 20.9775 14.2585 21.1181 14.3991L24.1181 17.3991C24.2588 17.5398 24.4496 17.6188 24.6485 17.6188H26.3617C26.3216 17.7336 26.2818 17.8484 26.2431 17.9636L24.1181 20.0885C20.7575 23.4513 17.7038 27.1074 14.9932 31.0132C14.3162 30.4476 13.5226 30.0384 12.6692 29.8147C11.8158 29.5911 10.9236 29.5585 10.0561 29.7193C9.18866 29.8801 8.36739 30.2303 7.65085 30.745C6.93431 31.2597 6.34018 31.9261 5.91081 32.6968C5.26284 32.5626 4.5909 32.6021 3.96313 32.8114C3.33536 33.0206 2.77407 33.3921 2.33618 33.8882L3.46081 34.8807C3.67206 34.6414 3.93177 34.4497 4.22273 34.3183C4.5137 34.187 4.82926 34.119 5.14849 34.1188C5.21157 34.1188 5.27415 34.122 5.33634 34.1271C5.21132 34.6145 5.14821 35.1157 5.14849 35.6188H6.64849C6.64818 34.7506 6.89913 33.9008 7.37107 33.1721C7.84301 32.4433 8.51576 31.8667 9.30815 31.5118C10.1005 31.1569 10.9787 31.0389 11.8367 31.172C12.6946 31.3052 13.4957 31.6838 14.1433 32.2621C13.9026 32.6233 13.6646 32.9862 13.4293 33.3507L13.2954 33.5588C12.7431 34.4223 11.9818 35.1325 11.0822 35.6237C10.1825 36.1148 9.1735 36.3711 8.14849 36.3688V37.8688C9.42475 37.8717 10.6811 37.5526 11.8013 36.9411C12.9215 36.3295 13.8694 35.4452 14.5571 34.3701L14.6909 34.162C17.5778 29.6741 20.9155 25.4928 24.6521 21.6831L27.3378 24.3688L25.6181 26.0885C24.0851 27.6216 23.2239 29.7008 23.2239 31.8688C23.2239 34.0368 24.0851 36.1161 25.6181 37.6491L26.6789 36.5885C25.6845 35.599 25.0299 34.3194 24.8094 32.9341C25.2235 32.7276 25.6796 32.6197 26.1423 32.6188C26.605 32.6179 27.0616 32.7241 27.4764 32.9289C27.8913 33.1338 28.2531 33.4318 28.5337 33.7997C28.8142 34.1677 29.0059 34.5955 29.0937 35.0497C28.7607 35.128 28.4342 35.2317 28.1171 35.3598L28.6799 36.7502C29.477 36.4287 30.3408 36.3077 31.1956 36.3978C32.0504 36.4878 32.87 36.7863 33.5826 37.2669C34.2952 37.7475 34.8789 38.3956 35.2827 39.1543C35.6865 39.9131 35.8979 40.7593 35.8985 41.6188H37.3985C37.3965 39.8292 36.6847 38.1135 35.4192 36.8481C34.1538 35.5826 32.4381 34.8708 30.6485 34.8688C30.6273 34.8688 30.6063 34.8701 30.5851 34.8703C30.4772 34.2318 30.2327 33.624 29.8685 33.0886C29.5043 32.5531 29.0288 32.1026 28.4745 31.7676C27.9203 31.4327 27.3003 31.2213 26.6568 31.1479C26.0134 31.0744 25.3617 31.1407 24.7463 31.3421C24.8667 29.7579 25.5526 28.2698 26.6789 27.1491L31.0537 22.7743C31.1689 22.7355 31.2838 22.6957 31.3985 22.6556V24.3688C31.3985 24.5677 31.4775 24.7585 31.6181 24.8991L34.6181 27.8991C34.7588 28.0398 34.9496 28.1188 35.1485 28.1188C35.3474 28.1188 35.5382 28.0398 35.6789 27.8991C36.4643 27.118 37.087 26.1888 37.5109 25.1654C37.9348 24.142 38.1515 23.0446 38.1485 21.9369V19.3055C39.8536 18.1797 41.441 16.8852 42.8867 15.4413C44.2421 14.0933 45.3167 12.4898 46.0482 10.7237C46.7797 8.95761 47.1537 7.06396 47.1485 5.15237V2.61883C47.1485 2.41992 47.0695 2.22915 46.9288 2.0885C46.7882 1.94785 46.5974 1.86883 46.3985 1.86883ZM45.6485 3.36883V5.15237C45.6494 6.31193 45.4965 7.4665 45.194 8.58589C44.0833 8.46152 43.0482 7.9619 42.2599 7.16959L41.8478 6.75742C41.0555 5.96911 40.5558 4.93407 40.4314 3.82333C41.5508 3.52077 42.7054 3.36794 43.865 3.36883H45.6485ZM24.9591 16.1188L22.7373 13.897C23.9666 12.9039 25.5002 12.3643 27.0805 12.3688H28.7812C28.08 13.5752 27.4621 14.8281 26.932 16.1188H24.9591ZM25.7092 20.6188L26.8985 19.4295L29.5878 22.1188L28.3985 23.3081L25.7092 20.6188ZM36.6485 21.9369C36.653 23.5171 36.1134 25.0508 35.1203 26.28L32.8985 24.0582V22.0853C34.1892 21.5552 35.4421 20.9373 36.6485 20.2361V21.9369ZM41.826 14.3807C38.7301 17.4688 34.9782 19.8197 30.849 21.2587L27.7587 18.1684C29.1976 14.0391 31.5485 10.2872 34.6367 7.1913C35.8768 5.94712 37.3558 4.96669 38.9847 4.30898C39.201 5.63928 39.8318 6.86734 40.787 7.81806L41.1992 8.23024C42.1499 9.18554 43.378 9.8163 44.7083 10.0326C44.0506 11.6615 43.0701 13.1405 41.826 14.3807Z" fill="#F5FCFA"/>
<path d="M7.41628 41.1327C6.71538 40.8814 5.96307 40.8079 5.2268 40.919C4.49054 41.03 3.79334 41.3221 3.19775 41.7689L4.09863 42.9683C4.5444 42.6341 5.0744 42.4307 5.62926 42.3807C6.18412 42.3308 6.74193 42.4363 7.24021 42.6855C7.73848 42.9347 8.15754 43.3177 8.45043 43.7916C8.74333 44.2655 8.8985 44.8116 8.89856 45.3687H10.3986C10.3986 44.6977 10.2483 44.0352 9.95872 43.4299C9.66917 42.8246 9.24772 42.2919 8.72532 41.8708C9.24202 41.0505 10.0562 40.462 10.9973 40.2288C11.9383 39.9956 12.933 40.1358 13.773 40.6199L14.5241 39.3215C13.3371 38.6368 11.9296 38.443 10.6018 38.7814C9.27394 39.1197 8.13084 39.9635 7.41627 41.1327L7.41628 41.1327Z" fill="#F5FCFA"/>
<path d="M21.6483 37.8688C20.3567 37.8679 19.1103 38.344 18.1482 39.2058L19.1485 40.3234C19.7695 39.7691 20.5571 39.4371 21.3875 39.3796C22.2179 39.322 23.0438 39.5423 23.7353 40.0057C24.4268 40.4691 24.9445 41.1492 25.2069 41.9391C25.4694 42.7291 25.4617 43.5838 25.1851 44.3689L26.5994 44.8687C26.8787 44.0767 26.964 43.2293 26.8482 42.3976C26.7324 41.5659 26.4189 40.774 25.934 40.0884C25.449 39.4028 24.8068 38.8435 24.0612 38.4573C23.3155 38.0711 22.4881 37.8693 21.6483 37.8688Z" fill="#F5FCFA"/>
</svg>
