<svg width="19" height="20" viewBox="0 0 19 20" fill="none" xmlns="http://www.w3.org/2000/svg">
<path d="M16.1709 6.61078H7.93999C6.92981 6.61078 6.1109 7.42969 6.1109 8.43987V16.6708C6.1109 17.681 6.92981 18.4999 7.93999 18.4999H16.1709C17.1811 18.4999 18 17.681 18 16.6708V8.43987C18 7.42969 17.1811 6.61078 16.1709 6.61078Z" stroke="#F5FCFA" stroke-width="2"/>
<path d="M3.74364 13.3892H2.82909C2.34399 13.3892 1.87875 13.1965 1.53573 12.8535C1.19271 12.5105 1 12.0452 1 11.5601V3.32922C1 2.84411 1.19271 2.37887 1.53573 2.03585C1.87875 1.69283 2.34399 1.50012 2.82909 1.50012H11.06C11.5451 1.50012 12.0104 1.69283 12.3534 2.03585C12.6964 2.37887 12.8891 2.84411 12.8891 3.32922V4.24376" stroke="#F5FCFA" stroke-width="2"/>
</svg>
