<svg width="49" height="49" viewBox="0 0 49 49" fill="none" xmlns="http://www.w3.org/2000/svg">
<g clip-path="url(#clip0_1508_3749)">
<path d="M45.3647 20.0189C45.2421 19.8084 45.019 19.6762 44.7755 19.6696L28.8746 19.2514C29.1061 19.1126 29.3218 18.9445 29.5173 18.7489L30.9269 17.339C32.217 16.0485 32.217 13.9486 30.9269 12.6581C30.3017 12.0326 29.4701 11.6884 28.5857 11.6884C27.7013 11.6884 26.87 12.0326 26.2449 12.6581L24.8353 14.068C24.3347 14.569 24.0289 15.1919 23.9172 15.8423L19.797 11.5466C19.5285 11.2665 19.0836 11.2573 18.8031 11.5261C18.5229 11.7946 18.5134 12.2399 18.7822 12.52L19.6754 13.4513L18.4486 14.335L12.4482 6.93274C12.7148 6.91113 12.9609 6.81482 13.1667 6.66467L16.8358 10.4905C16.9738 10.6344 17.1584 10.7069 17.3434 10.7069C17.5184 10.7069 17.6935 10.6417 17.83 10.5114C18.1102 10.2426 18.1194 9.79724 17.8506 9.51709L13.7446 5.23571L13.6029 1.28649C13.5996 0.888788 13.3462 0.540521 12.9664 0.415643C12.5782 0.288202 12.1596 0.425897 11.9238 0.756952L3.59029 12.4157C2.5887 13.8164 2.63155 15.7365 3.6921 17.0914L9.0538 24.6544C9.24642 24.9269 9.52438 25.1807 9.89535 25.4227C9.87594 25.6088 9.86605 25.7959 9.86789 25.9845L10.0913 46.6256C10.1015 47.5869 10.8918 48.3688 11.8531 48.3688H15.6983C16.2923 48.3688 16.79 47.9817 16.9361 47.4057C17.0822 46.8296 16.8296 46.2521 16.307 45.9687C16.2879 45.9584 16.2685 45.9489 16.2484 45.9405L14.0423 44.9967C13.9171 44.9429 13.8416 44.8111 13.8592 44.6759L14.6173 38.7045C14.666 38.3192 14.3935 37.9673 14.0083 37.9182C13.6241 37.8695 13.2711 38.142 13.222 38.5272L13.1096 39.4135H11.4195L11.2745 25.9695C11.2716 25.7186 11.295 25.4722 11.3426 25.2327C11.347 25.2155 11.351 25.1979 11.3543 25.1803C11.5005 24.4988 11.8462 23.8773 12.3654 23.3818C12.6463 23.1138 12.6566 22.6688 12.3885 22.388C12.1208 22.1071 11.6755 22.0964 11.3946 22.3645C10.9215 22.8161 10.5483 23.3558 10.2887 23.9454C10.2491 23.9041 10.2209 23.8693 10.2015 23.8418L4.82918 16.2638C4.82223 16.2539 4.8149 16.244 4.80721 16.2345C4.1213 15.3673 4.09127 14.1328 4.7347 13.2334L8.36752 8.15076L9.16989 8.78577L6.96969 12.9126C6.9631 12.9247 6.95687 12.9371 6.95101 12.9496C6.59432 13.726 6.79757 14.6572 7.44503 15.2142L15.3219 21.9917L13.5706 35.7858C13.5216 36.171 13.7944 36.523 14.1797 36.572C14.2093 36.5757 14.2393 36.5775 14.269 36.5775C14.6176 36.5775 14.9205 36.3183 14.9655 35.963L16.0807 27.1791H19.8684C22.0243 27.1791 23.9469 26.9993 25.6369 24.7951L26.1515 24.2139L42.0732 23.2412C42.0787 23.2409 42.0839 23.2405 42.089 23.2401C43.1162 23.1544 44.0841 22.6505 44.7447 21.8577C44.7751 21.8207 44.8019 21.7808 44.8246 21.7387L45.3772 20.7037C45.4922 20.4888 45.4874 20.2295 45.3647 20.0189ZM12.9312 40.8197L12.464 44.4987C12.368 45.2538 12.7899 45.9903 13.4893 46.2895L15.0626 46.9626H11.8531C11.659 46.9626 11.4997 46.8047 11.4975 46.6106L11.4349 40.8197H12.9312ZM25.8299 15.0623L27.2391 13.6523C27.5991 13.2927 28.077 13.0946 28.5857 13.0946C29.0947 13.0946 29.5726 13.2927 29.9322 13.6523C30.6745 14.3947 30.6745 15.6024 29.9322 16.3447L28.5231 17.7546C28.1631 18.1143 27.6852 18.3124 27.1765 18.3124C26.6678 18.3124 26.1896 18.1143 25.8299 17.7546C25.0876 17.0123 25.0876 15.8046 25.8299 15.0623ZM9.186 7.00561L12.2472 2.72277L12.3479 5.52319C12.3457 5.52832 12.3409 5.53235 12.335 5.53235H11.8564C11.7857 5.53235 11.7162 5.53821 11.6484 5.54773C11.6371 5.54846 11.6264 5.55029 11.6151 5.55176C11.6092 5.55285 11.6034 5.55322 11.5975 5.55395C11.5946 5.55432 11.592 5.55505 11.5894 5.55578C11.5763 5.55798 11.5638 5.56054 11.5514 5.56347C11.2353 5.62463 10.9431 5.78283 10.7193 6.01428C10.7142 6.01904 10.7091 6.02417 10.7043 6.02893C10.7006 6.03296 10.6966 6.03662 10.693 6.04028C10.6853 6.0487 10.6783 6.05749 10.671 6.06592C10.6681 6.06921 10.6651 6.07251 10.6622 6.0758C10.5659 6.1853 10.4842 6.30652 10.4216 6.43835L9.84188 7.52527L9.186 7.00561ZM8.22213 13.552L11.31 7.76111L19.5644 17.9443C19.4428 19.6351 18.041 20.9758 16.3264 21.0011L8.36239 14.1486C8.19137 14.0017 8.13534 13.7585 8.22213 13.552ZM25.7746 22.8281C25.5886 22.8395 25.4143 22.9244 25.2909 23.064L24.5669 23.8821C24.5555 23.8953 24.5445 23.9085 24.5343 23.922C23.5591 25.2019 22.6542 25.7728 19.868 25.7728H16.259L16.6886 22.3898C19.0891 22.1803 20.9791 20.1603 20.9791 17.7059C20.9791 17.5448 20.9234 17.3884 20.822 17.2632L19.3355 15.4292L20.6583 14.4763L24.9514 18.9522C25.9175 20.0325 27.3006 20.6525 28.7494 20.655L30.3728 20.6979L30.4098 22.5451L25.7746 22.8281ZM41.9791 21.8383L31.8146 22.459L31.7798 20.7345L43.5875 21.0451C43.1715 21.4981 42.5922 21.7852 41.9791 21.8383Z" fill="#F5FCFA"/>
</g>
<defs>
<clipPath id="clip0_1508_3749">
<rect width="48" height="48" fill="white" transform="translate(0.148438 0.368774)"/>
</clipPath>
</defs>
</svg>
