<svg width="33" height="31" viewBox="0 0 33 31" fill="none" xmlns="http://www.w3.org/2000/svg">
<path d="M29.5553 3.72174C28.7656 2.93199 27.8279 2.30561 26.796 1.8784C25.7641 1.45119 24.6581 1.23151 23.5412 1.23193C22.4243 1.23235 21.3185 1.45286 20.2869 1.88085C19.2553 2.30883 18.3181 2.93592 17.5289 3.72625L16.4988 4.76892L15.4773 3.72851L15.4706 3.72187C14.6813 2.9325 13.7441 2.30633 12.7128 1.87912C11.6814 1.45192 10.576 1.23203 9.45967 1.23203C8.34333 1.23203 7.23792 1.45192 6.20656 1.87912C5.1752 2.30633 4.23808 2.9325 3.44871 3.72187L2.9898 4.18078C1.39561 5.77498 0.5 7.93717 0.5 10.1917C0.5 12.4462 1.39561 14.6084 2.9898 16.2026L15.1016 28.3143L16.4693 29.7473L16.502 29.7147L16.5373 29.7501L17.8188 28.398L30.0142 16.2024C31.606 14.607 32.5 12.4453 32.5 10.1915C32.5 7.93777 31.606 5.77604 30.0142 4.18058L29.5553 3.72174ZM28.5112 14.6997L16.502 26.7092L4.49244 14.6997C3.2968 13.5041 2.6251 11.8824 2.6251 10.1915C2.6251 8.50065 3.2968 6.879 4.49244 5.68335L4.95142 5.22444C6.14648 4.02939 7.76715 3.35774 9.45721 3.3571C11.1473 3.35647 12.7684 4.0269 13.9644 5.22106L16.4942 7.79699L19.0361 5.22444C19.6281 4.63241 20.331 4.16279 21.1045 3.84238C21.878 3.52198 22.7071 3.35707 23.5443 3.35707C24.3816 3.35707 25.2106 3.52198 25.9842 3.84238C26.7577 4.16279 27.4605 4.63241 28.0525 5.22444L28.5115 5.68329C29.7053 6.87992 30.3757 8.50124 30.3757 10.1916C30.3756 11.8819 29.7051 13.5032 28.5112 14.6997Z" fill="#F5FCFA" stroke="#F5FCFA" stroke-width="0.5"/>
</svg>
