<svg width="27" height="24" viewBox="0 0 27 24" fill="none" xmlns="http://www.w3.org/2000/svg">
<path fill-rule="evenodd" clip-rule="evenodd" d="M21.544 1.6509C22.3502 1.98466 23.0827 2.47401 23.6997 3.091L24.0582 3.44947C25.3018 4.69593 26.0002 6.38478 26.0002 8.14551C26.0002 9.90625 25.3018 11.5951 24.0582 12.8416L14.5306 22.3693L13.5294 23.4256L13.5018 23.398L13.4763 23.4235L12.4077 22.3039L2.9454 12.8417C1.69994 11.5962 1.00024 9.90702 1.00024 8.14567C1.00024 6.38431 1.69994 4.6951 2.9454 3.44963L3.30392 3.09111C3.92062 2.47441 4.65274 1.98522 5.4585 1.65146C6.26425 1.3177 7.12785 1.14592 7.99999 1.14592C8.87213 1.14592 9.73573 1.3177 10.5415 1.65146C11.3472 1.98522 12.0794 2.47441 12.6961 3.09111L12.7012 3.0963L13.4993 3.90912L14.3041 3.09453C14.9206 2.47708 15.6528 1.98717 16.4587 1.65281C17.2647 1.31844 18.1286 1.14617 19.0012 1.14584C19.8737 1.14552 20.7378 1.31714 21.544 1.6509Z" fill="#F5FCFA"/>
<path d="M23.6997 3.091L23.5229 3.26778L23.523 3.26779L23.6997 3.091ZM21.544 1.6509L21.6396 1.41991L21.544 1.6509ZM24.0582 3.44947L24.2352 3.2729L24.235 3.27268L24.0582 3.44947ZM24.0582 12.8416L24.235 13.0183L24.2352 13.0181L24.0582 12.8416ZM14.5306 22.3693L14.3537 22.1925L14.3491 22.1973L14.5306 22.3693ZM13.5294 23.4256L13.3526 23.6024L13.5342 23.784L13.7109 23.5976L13.5294 23.4256ZM13.5018 23.398L13.6785 23.2212L13.5016 23.0442L13.3248 23.2214L13.5018 23.398ZM13.4763 23.4235L13.2954 23.5961L13.4723 23.7814L13.6532 23.6001L13.4763 23.4235ZM12.4077 22.3039L12.5886 22.1313L12.5845 22.1272L12.4077 22.3039ZM2.9454 12.8417L2.76863 13.0185L2.76863 13.0185L2.9454 12.8417ZM2.9454 3.44963L2.76863 3.27285L2.76863 3.27285L2.9454 3.44963ZM3.30392 3.09111L3.4807 3.26788L3.4807 3.26788L3.30392 3.09111ZM5.4585 1.65146L5.36282 1.42049V1.42049L5.4585 1.65146ZM10.5415 1.65146L10.6372 1.42049V1.42049L10.5415 1.65146ZM12.6961 3.09111L12.8728 2.91434L12.8728 2.91433L12.6961 3.09111ZM12.7012 3.0963L12.8796 2.92114L12.878 2.91952L12.7012 3.0963ZM13.4993 3.90912L13.3209 4.08427L13.4988 4.26539L13.6772 4.08482L13.4993 3.90912ZM14.3041 3.09453L14.1272 2.91788L14.1263 2.91883L14.3041 3.09453ZM16.4587 1.65281L16.3629 1.42189V1.42189L16.4587 1.65281ZM19.0012 1.14584L19.0011 0.895844L19.0012 1.14584ZM23.8765 2.91423C23.2363 2.27401 22.4762 1.76623 21.6396 1.41991L21.4484 1.88189C22.2242 2.20308 22.9292 2.67402 23.5229 3.26778L23.8765 2.91423ZM24.235 3.27268L23.8765 2.91421L23.523 3.26779L23.8815 3.62626L24.235 3.27268ZM26.2502 8.14551C26.2502 6.31857 25.5256 4.56622 24.2352 3.2729L23.8813 3.62605C25.0781 4.82564 25.7502 6.45098 25.7502 8.14551H26.2502ZM24.2352 13.0181C25.5256 11.7248 26.2502 9.97245 26.2502 8.14551H25.7502C25.7502 9.84004 25.0781 11.4654 23.8813 12.665L24.2352 13.0181ZM14.7074 22.5461L24.235 13.0183L23.8815 12.6648L14.3538 22.1925L14.7074 22.5461ZM13.7109 23.5976L14.712 22.5413L14.3491 22.1973L13.348 23.2536L13.7109 23.5976ZM13.325 23.5747L13.3526 23.6024L13.7062 23.2488L13.6785 23.2212L13.325 23.5747ZM13.6532 23.6001L13.6787 23.5746L13.3248 23.2214L13.2993 23.2469L13.6532 23.6001ZM12.2269 22.4765L13.2954 23.5961L13.6571 23.2509L12.5886 22.1313L12.2269 22.4765ZM2.76863 13.0185L12.231 22.4807L12.5845 22.1272L3.12218 12.6649L2.76863 13.0185ZM0.750244 8.14567C0.750244 9.97333 1.47628 11.7261 2.76863 13.0185L3.12218 12.6649C1.9236 11.4663 1.25024 9.84072 1.25024 8.14567H0.750244ZM2.76863 3.27285C1.47628 4.56521 0.750244 6.31801 0.750244 8.14567H1.25024C1.25024 6.45062 1.9236 4.82499 3.12218 3.62641L2.76863 3.27285ZM3.12715 2.91433L2.76863 3.27285L3.12218 3.62641L3.4807 3.26788L3.12715 2.91433ZM5.36282 1.42049C4.52674 1.76681 3.76706 2.27442 3.12715 2.91433L3.4807 3.26788C4.07418 2.6744 4.77875 2.20362 5.55417 1.88243L5.36282 1.42049ZM7.99999 0.895923C7.09502 0.895923 6.19891 1.07417 5.36282 1.42049L5.55417 1.88243C6.32959 1.56124 7.16068 1.39592 7.99999 1.39592V0.895923ZM10.6372 1.42049C9.80107 1.07417 8.90496 0.895923 7.99999 0.895923V1.39592C8.8393 1.39592 9.67039 1.56124 10.4458 1.88243L10.6372 1.42049ZM12.8728 2.91433C12.2329 2.27442 11.4732 1.76681 10.6372 1.42049L10.4458 1.88243C11.2212 2.20362 11.9258 2.6744 12.5193 3.26788L12.8728 2.91433ZM12.878 2.91952L12.8728 2.91434L12.5193 3.26788L12.5245 3.27307L12.878 2.91952ZM13.6777 3.73397L12.8796 2.92114L12.5229 3.27145L13.3209 4.08427L13.6777 3.73397ZM14.1263 2.91883L13.3215 3.73341L13.6772 4.08482L14.482 3.27023L14.1263 2.91883ZM16.3629 1.42189C15.5267 1.76884 14.7669 2.27719 14.1272 2.91789L14.481 3.27118C15.0743 2.67697 15.7789 2.2055 16.5545 1.88372L16.3629 1.42189ZM19.0011 0.895844C18.0957 0.896184 17.1992 1.07494 16.3629 1.42189L16.5545 1.88372C17.3302 1.56194 18.1616 1.39616 19.0013 1.39584L19.0011 0.895844ZM21.6396 1.41991C20.8031 1.07359 19.9065 0.895504 19.0011 0.895844L19.0013 1.39584C19.841 1.39553 20.6725 1.56069 21.4484 1.88189L21.6396 1.41991Z" fill="#F5FCFA"/>
</svg>
