<svg width="22" height="20" viewBox="0 0 22 20" fill="none" xmlns="http://www.w3.org/2000/svg">
<path d="M19.1596 2.6442C18.666 2.15061 18.08 1.75912 17.435 1.49212C16.79 1.22511 16.0988 1.08781 15.4008 1.08807C14.7027 1.08834 14.0116 1.22615 13.3668 1.49364C12.722 1.76114 12.1363 2.15306 11.6431 2.64702L10.9993 3.29869L10.3608 2.64843L10.3566 2.64428C9.86329 2.15092 9.27759 1.75957 8.63299 1.49257C7.98839 1.22556 7.29751 1.08814 6.5998 1.08814C5.90208 1.08814 5.2112 1.22556 4.5666 1.49257C3.922 1.75957 3.3363 2.15092 2.84294 2.64428L2.55613 2.9311C1.55976 3.92748 1 5.27885 1 6.68793C1 8.09702 1.55976 9.44839 2.55613 10.4448L10.126 18.0145L10.9808 18.9102L11.0012 18.8898L11.0233 18.9119L11.8243 18.0668L19.4464 10.4446C20.4413 9.44747 21 8.0964 21 6.68781C21 5.27922 20.4413 3.92814 19.4464 2.93098L19.1596 2.6442ZM18.507 9.50545L11.0012 17.0114L3.49528 9.50545C2.748 8.75817 2.32819 7.74464 2.32819 6.68783C2.32819 5.63102 2.748 4.61749 3.49528 3.87021L3.78214 3.58339C4.52905 2.83648 5.54197 2.4167 6.59826 2.4163C7.65455 2.41591 8.66778 2.83493 9.41526 3.58128L10.9964 5.19123L12.5851 3.58339C12.9551 3.21337 13.3944 2.91986 13.8778 2.71961C14.3613 2.51935 14.8794 2.41628 15.4027 2.41628C15.926 2.41628 16.4441 2.51935 16.9276 2.71961C17.4111 2.91986 17.8503 3.21337 18.2203 3.58339L18.5072 3.87017C19.2533 4.61807 19.6723 5.63139 19.6723 6.68784C19.6723 7.74429 19.2532 8.7576 18.507 9.50545Z" fill="#264F4B" stroke="#264F4B" stroke-width="0.5"/>
</svg>
