<svg width="29" height="29" viewBox="0 0 29 29" fill="none" xmlns="http://www.w3.org/2000/svg">
<path d="M14.5 0.0632324C6.76875 0.0632324 0.5 6.33198 0.5 14.0632C0.5 21.7945 6.76875 28.0632 14.5 28.0632C22.2313 28.0632 28.5 21.7945 28.5 14.0632C28.5 6.33198 22.2313 0.0632324 14.5 0.0632324ZM15.5 20.8132C15.5 20.9507 15.3875 21.0632 15.25 21.0632H13.75C13.6125 21.0632 13.5 20.9507 13.5 20.8132V12.3132C13.5 12.1757 13.6125 12.0632 13.75 12.0632H15.25C15.3875 12.0632 15.5 12.1757 15.5 12.3132V20.8132ZM14.5 10.0632C14.1075 10.0552 13.7337 9.89366 13.459 9.61323C13.1842 9.3328 13.0303 8.95584 13.0303 8.56323C13.0303 8.17063 13.1842 7.79367 13.459 7.51323C13.7337 7.2328 14.1075 7.07125 14.5 7.06323C14.8925 7.07125 15.2663 7.2328 15.541 7.51323C15.8158 7.79367 15.9697 8.17063 15.9697 8.56323C15.9697 8.95584 15.8158 9.3328 15.541 9.61323C15.2663 9.89366 14.8925 10.0552 14.5 10.0632Z" fill="#F5FCFA"/>
</svg>
