<svg width="22" height="19" viewBox="0 0 22 19" fill="none" xmlns="http://www.w3.org/2000/svg">
<path d="M19.1596 2.1514C18.666 1.65781 18.08 1.26633 17.435 0.999318C16.79 0.73231 16.0988 0.595014 15.4008 0.595276C14.7027 0.595538 14.0116 0.733354 13.3668 1.00085C12.722 1.26834 12.1363 1.66026 11.6431 2.15423L10.9993 2.80589L10.3608 2.15564L10.3566 2.15149C9.86329 1.65813 9.27759 1.26677 8.63299 0.999769C7.98839 0.732765 7.29751 0.595339 6.5998 0.595339C5.90208 0.595339 5.2112 0.732765 4.5666 0.999769C3.922 1.26677 3.3363 1.65813 2.84294 2.15149L2.55613 2.4383C1.55976 3.43468 1 4.78605 1 6.19514C1 7.60422 1.55976 8.95559 2.55613 9.95197L10.126 17.5217L10.9808 18.4174L11.0012 18.397L11.0233 18.4191L11.8243 17.574L19.4464 9.95184C20.4413 8.95468 21 7.6036 21 6.19501C21 4.78642 20.4413 3.43535 19.4464 2.43818L19.1596 2.1514ZM18.507 9.01265L11.0012 16.5186L3.49528 9.01265C2.748 8.26537 2.32819 7.25184 2.32819 6.19503C2.32819 5.13822 2.748 4.12469 3.49528 3.37741L3.78214 3.0906C4.52905 2.34369 5.54197 1.9239 6.59826 1.92351C7.65455 1.92311 8.66778 2.34213 9.41526 3.08848L10.9964 4.69843L12.5851 3.0906C12.9551 2.72058 13.3944 2.42706 13.8778 2.22681C14.3613 2.02655 14.8794 1.92349 15.4027 1.92349C15.926 1.92349 16.4442 2.02655 16.9276 2.22681C17.4111 2.42706 17.8503 2.72058 18.2203 3.0906L18.5072 3.37737C19.2533 4.12527 19.6723 5.13859 19.6723 6.19504C19.6723 7.2515 19.2532 8.2648 18.507 9.01265V9.01265Z" fill="#F5FCFA" stroke="#F5FCFA" stroke-width="0.5"/>
</svg>
