<svg width="33" height="31" viewBox="0 0 33 31" fill="none" xmlns="http://www.w3.org/2000/svg">
<path fill-rule="evenodd" clip-rule="evenodd" d="M26.796 1.8784C27.8279 2.30562 28.7656 2.93199 29.5553 3.72174L30.0142 4.18058C31.606 5.77604 32.5 7.93777 32.5 10.1915C32.5 12.4453 31.606 14.607 30.0142 16.2024L17.8188 28.398L16.5373 29.7501L16.502 29.7147L16.4693 29.7473L15.1016 28.3143L2.9898 16.2026C1.39561 14.6084 0.5 12.4462 0.5 10.1917C0.5 7.93717 1.39561 5.77498 2.9898 4.18078L3.44871 3.72187C4.23808 2.9325 5.1752 2.30633 6.20656 1.87912C7.23792 1.45192 8.34333 1.23204 9.45967 1.23204C10.576 1.23204 11.6814 1.45192 12.7128 1.87912C13.7441 2.30633 14.6813 2.9325 15.4706 3.72187L15.4773 3.72851L16.4988 4.76892L17.5289 3.72625C18.3181 2.93592 19.2553 2.30883 20.2869 1.88085C21.3185 1.45286 22.4243 1.23235 23.5412 1.23193C24.6581 1.23152 25.7641 1.45119 26.796 1.8784Z" fill="#E99022"/>
<path d="M29.5553 3.72174L29.3785 3.89851L29.3786 3.89853L29.5553 3.72174ZM26.796 1.8784L26.8916 1.64741V1.64741L26.796 1.8784ZM30.0142 4.18058L30.1912 4.00401L30.191 4.00379L30.0142 4.18058ZM30.0142 16.2024L30.191 16.3792L30.1912 16.379L30.0142 16.2024ZM17.8188 28.398L17.642 28.2211L17.6374 28.226L17.8188 28.398ZM16.5373 29.7501L16.3606 29.9268L16.5421 30.1084L16.7188 29.922L16.5373 29.7501ZM16.502 29.7147L16.6787 29.5379L16.5018 29.3609L16.325 29.5381L16.502 29.7147ZM16.4693 29.7473L16.2885 29.9199L16.4653 30.1052L16.6463 29.9239L16.4693 29.7473ZM15.1016 28.3143L15.2825 28.1416L15.2784 28.1375L15.1016 28.3143ZM2.9898 16.2026L2.81303 16.3794L2.81303 16.3794L2.9898 16.2026ZM2.9898 4.18078L2.81303 4.004L2.81303 4.004L2.9898 4.18078ZM3.44871 3.72187L3.62549 3.89865L3.62549 3.89865L3.44871 3.72187ZM6.20656 1.87912L6.30223 2.11009L6.20656 1.87912ZM12.7128 1.87912L12.8085 1.64815V1.64815L12.7128 1.87912ZM15.4706 3.72187L15.6474 3.5451L15.6474 3.54509L15.4706 3.72187ZM15.4773 3.72851L15.6557 3.55335L15.6541 3.55174L15.4773 3.72851ZM16.4988 4.76892L16.3204 4.94408L16.4983 5.1252L16.6767 4.94463L16.4988 4.76892ZM17.5289 3.72625L17.352 3.54961L17.3511 3.55055L17.5289 3.72625ZM20.2869 1.88085L20.1911 1.64993L20.2869 1.88085ZM23.5412 1.23193L23.5411 0.981934L23.5412 1.23193ZM29.7321 3.54496C28.9191 2.73199 27.9539 2.08719 26.8916 1.64741L26.7004 2.10939C27.702 2.52404 28.612 3.132 29.3785 3.89851L29.7321 3.54496ZM30.191 4.00379L29.7321 3.54495L29.3786 3.89853L29.8375 4.35737L30.191 4.00379ZM32.75 10.1915C32.75 7.87156 31.8298 5.64634 30.1912 4.00401L29.8373 4.35715C31.3823 5.90575 32.25 8.00397 32.25 10.1915H32.75ZM30.1912 16.379C31.8298 14.7367 32.75 12.5115 32.75 10.1915H32.25C32.25 12.379 31.3823 14.4773 29.8373 16.0259L30.1912 16.379ZM17.9956 28.5747L30.191 16.3792L29.8375 16.0257L17.6421 28.2212L17.9956 28.5747ZM16.7188 29.922L18.0003 28.5699L17.6374 28.226L16.3559 29.5781L16.7188 29.922ZM16.3252 29.8914L16.3606 29.9268L16.7141 29.5733L16.6787 29.5379L16.3252 29.8914ZM16.6463 29.9239L16.6789 29.8913L16.325 29.5381L16.2924 29.5707L16.6463 29.9239ZM14.9207 28.4869L16.2885 29.9199L16.6502 29.5747L15.2824 28.1417L14.9207 28.4869ZM2.81303 16.3794L14.9248 28.4911L15.2784 28.1375L3.16658 16.0259L2.81303 16.3794ZM0.25 10.1917C0.25 12.5125 1.17195 14.7383 2.81303 16.3794L3.16658 16.0259C1.61927 14.4785 0.75 12.3799 0.75 10.1917H0.25ZM2.81303 4.004C1.17195 5.64509 0.25 7.87087 0.25 10.1917H0.75C0.75 8.00348 1.61927 5.90487 3.16658 4.35756L2.81303 4.004ZM3.27193 3.54509L2.81303 4.004L3.16658 4.35756L3.62549 3.89865L3.27193 3.54509ZM6.11089 1.64815C5.04919 2.08792 4.08452 2.73251 3.27193 3.54509L3.62549 3.89865C4.39164 3.13249 5.3012 2.52474 6.30223 2.11009L6.11089 1.64815ZM9.45967 0.982035C8.3105 0.982035 7.17258 1.20838 6.11089 1.64815L6.30223 2.11009C7.30326 1.69545 8.37616 1.48204 9.45967 1.48204V0.982035ZM12.8085 1.64815C11.7468 1.20838 10.6088 0.982035 9.45967 0.982035V1.48204C10.5432 1.48204 11.6161 1.69545 12.6171 2.11009L12.8085 1.64815ZM15.6474 3.54509C14.8348 2.73251 13.8702 2.08792 12.8085 1.64815L12.6171 2.11009C13.6181 2.52474 14.5277 3.13249 15.2939 3.89865L15.6474 3.54509ZM15.6541 3.55174L15.6474 3.5451L15.2939 3.89864L15.3005 3.90528L15.6541 3.55174ZM16.6772 4.59377L15.6557 3.55336L15.2989 3.90366L16.3204 4.94408L16.6772 4.59377ZM17.3511 3.55055L16.321 4.59322L16.6767 4.94463L17.7068 3.90196L17.3511 3.55055ZM20.1911 1.64993C19.1291 2.09051 18.1644 2.73603 17.352 3.54961L17.7059 3.9029C18.4718 3.1358 19.3814 2.52716 20.3827 2.11176L20.1911 1.64993ZM23.5411 0.981934C22.3914 0.982366 21.253 1.20936 20.1911 1.64993L20.3827 2.11176C21.384 1.69636 22.4573 1.48234 23.5413 1.48193L23.5411 0.981934ZM26.8916 1.64741C25.8294 1.20764 24.6908 0.981503 23.5411 0.981934L23.5413 1.48193C24.6253 1.48153 25.6988 1.69474 26.7004 2.10939L26.8916 1.64741Z" fill="#E99022"/>
</svg>
