<svg width="334" height="128" viewBox="0 0 334 128" fill="none" xmlns="http://www.w3.org/2000/svg">
<path fill-rule="evenodd" clip-rule="evenodd" d="M108.403 63.6418C123.246 63.6418 142.77 58.2937 142.77 46.4292C142.77 40.9165 138.464 38.119 132.462 38.1026C127.577 38.1026 123.202 39.7656 118.632 41.503C113.633 43.4032 108.4 45.3925 102.009 45.3925C97.7848 45.3925 96.0884 42.9241 96.0884 40.357C96.0884 37.4115 97.638 35.4039 101.863 32.9191C105.402 34.7127 109.708 35.7165 114.324 35.7165C125.399 35.7165 135.006 29.9735 135.006 20.2811C135.006 14.933 132.087 10.8191 127.699 8.18618C131.233 4.96362 132.684 5.17596 135.513 5.58985C135.949 5.65361 136.417 5.72215 136.931 5.78366C141.237 6.86973 143.472 4.38492 142.542 0.205182C134.631 -0.946715 130.619 2.92037 126.476 7.57732C123.018 5.80011 118.777 4.86214 114.324 4.86214C103.167 4.86214 93.6418 10.6052 93.6418 20.2976C93.6418 25.1849 96.0232 29.0684 99.8726 31.7013C93.5602 34.1039 90.1023 37.2963 90.1023 41.476C90.1023 44.7342 92.027 46.9064 94.6367 48.1406C91.8639 49.6051 90.1023 51.8595 90.1023 54.5747C90.1023 61.3215 99.4811 63.6418 108.403 63.6418ZM128.564 41.3114C132.788 41.3114 134.403 43.714 134.403 46.4292C134.403 55.3481 119.935 60.9266 107.441 60.9266C99.6768 60.9266 92.5979 58.9026 92.5979 54.0975C92.5979 51.9254 93.756 50.1481 96.2842 48.6671C97.589 49.0621 99.0407 49.2924 100.509 49.2924C106.313 49.2924 111.49 47.0342 116.336 44.9202C120.6 43.06 124.609 41.3114 128.564 41.3114ZM114.324 34.2355C107.555 34.2355 103.64 28.7393 103.64 20.2811C103.64 11.8229 107.571 6.32669 114.324 6.32669C121.077 6.32669 124.926 11.8393 124.926 20.2811C124.926 28.7229 121.093 34.2355 114.324 34.2355ZM40.4509 24.9379C40.4509 12.4481 50.1397 4.84554 63.4331 4.84554C76.6613 4.84554 86.4153 12.4481 86.4153 24.9379C86.4153 37.4278 76.645 45.0303 63.4331 45.0303C50.1234 45.0303 40.4509 37.4278 40.4509 24.9379ZM76.3514 24.9379C76.3514 13.2215 71.9638 6.32655 63.4331 6.32655C54.8209 6.32655 50.4333 13.2215 50.4333 24.9379C50.4333 36.7202 54.8209 43.5493 63.4331 43.5493C71.9638 43.5493 76.3514 36.7202 76.3514 24.9379ZM38.5918 6.39263C37.4337 8.64706 37.0586 9.73314 36.1288 12.4483L25.3636 43.4673C22.0524 53.0116 18.2846 57.2736 11.3688 57.2736C7.68247 57.2736 3.52319 56.0394 0.685083 53.4723C-0.163088 49.0457 5.44788 47.1862 7.45413 51.4483C8.84056 54.3116 10.1454 55.7926 12.8368 55.7926C16.7514 55.7926 20.8291 51.9913 23.6835 43.7635L23.7651 43.4508H14.843L3.00124 12.4319C2.15307 10.1774 1.53323 8.86099 0 6.37618H11.4503C11.8268 8.84507 12.2637 10.005 13.051 12.0956L13.1467 12.3496L24.3686 41.6736L34.5956 12.3496C35.3932 10.0907 35.6146 8.97043 35.9498 7.27408L35.9499 7.27366L35.9505 7.27034L35.9517 7.26447L35.9523 7.26168L35.9528 7.25889L35.9533 7.25617L35.9539 7.25335C36.0082 6.97858 36.0655 6.6886 36.1288 6.37618H38.5918V6.39263ZM177.072 43.467C176.615 40.0606 176.452 37.7239 176.387 34.9429C174.462 40.6859 169.846 45.0302 161.397 45.0302C155.02 45.0302 148.397 42.167 148.397 34.7125C148.397 25.5632 158.233 23.0784 165.932 21.7619C172.538 20.5936 176.387 19.1948 176.387 14.3075C176.387 9.10751 174.087 6.3265 169.618 6.3265C163.644 6.3265 161.236 9.64359 159.336 12.2615L159.336 12.2616L159.335 12.2618L159.335 12.2619L159.335 12.262L159.335 12.2623L159.335 12.2626L159.334 12.2631C158.984 12.7465 158.65 13.206 158.314 13.6164C155.542 17.2531 150.469 16.4797 149.621 11.7569C154.775 8.18599 162.457 4.86195 170.76 4.86195C179.372 4.86195 185.44 7.95562 185.521 16.6442V27.8176V27.8178C185.521 33.3962 185.521 37.1974 186.679 43.4834H177.072V43.467ZM176.371 27.9657V18.8986C174.962 20.97 172.314 21.6522 168.667 22.5917L168.667 22.5918C168.345 22.6748 168.015 22.7598 167.677 22.848C161.446 24.4771 158.38 27.7353 158.38 33.3138C158.38 39.0568 161.381 41.8378 165.687 41.8378C172.228 41.8378 176.371 35.8809 176.371 27.9657ZM29.5226 105.669C29.5878 108.45 29.7509 110.787 30.2077 114.193V114.21H39.8148C38.6568 107.924 38.6568 104.123 38.6568 98.5442V98.5441V87.3707C38.5752 78.6821 32.5075 75.5884 23.8953 75.5884C15.593 75.5884 7.91054 78.9124 2.75627 82.4833C3.60445 87.2061 8.67716 87.9795 11.45 84.3428C11.786 83.932 12.1199 83.4719 12.4712 82.9879C14.3714 80.37 16.7791 77.0529 22.7536 77.0529C27.2228 77.0529 29.5226 79.834 29.5226 85.0339C29.5226 89.9213 25.6732 91.32 19.0673 92.4884C11.3685 93.8048 1.53295 96.2896 1.53295 105.439C1.53295 112.893 8.15521 115.757 14.5328 115.757C22.9819 115.757 27.5979 111.412 29.5226 105.669ZM29.5226 89.6086V98.6922C29.5226 106.607 25.3796 112.564 18.8389 112.548C14.5328 112.548 11.5316 109.767 11.5316 104.024C11.5316 98.4453 14.598 95.1871 20.8288 93.558C21.1666 93.4698 21.4967 93.3847 21.819 93.3017C25.4659 92.3622 28.1139 91.68 29.5226 89.6086ZM67.576 75.5724C77.1832 75.5724 82.6473 81.0027 84.3437 86.6635C82.0438 90.0698 77.2647 89.1483 76.4981 84.7217C75.9598 81.6116 74.4919 77.0369 68.049 77.0369C60.285 77.0369 56.9739 83.323 56.9739 94.6445C56.9739 104.419 60.7417 112.943 70.4304 112.943C77.8845 112.943 82.6474 107.513 84.9635 99.5976H86.1868C83.6423 108.122 78.6512 115.724 67.2009 115.724C55.8974 115.724 46.9752 108.582 46.9752 95.6318C46.9752 82.7964 55.8973 75.5724 67.576 75.5724ZM119.021 105.669C119.086 108.45 119.25 110.787 119.706 114.193V114.21H129.313C128.155 107.924 128.155 104.123 128.155 98.5443V98.5441V87.3707C128.074 78.6821 122.006 75.5884 113.394 75.5884C105.092 75.5884 97.4092 78.9124 92.2549 82.4833C93.1031 87.2061 98.1758 87.9795 100.949 84.3428C101.285 83.932 101.619 83.4719 101.97 82.9879C103.87 80.37 106.278 77.0529 112.252 77.0529C116.721 77.0529 119.021 79.834 119.021 85.0339C119.021 89.9213 115.172 91.32 108.566 92.4884C100.867 93.8048 91.0316 96.2896 91.0316 105.439C91.0316 112.893 97.6539 115.757 104.031 115.757C112.481 115.757 117.097 111.412 119.021 105.669ZM119.021 89.6086V98.6922C119.021 106.607 114.862 112.564 108.338 112.548C104.031 112.548 101.03 109.767 101.03 104.024C101.03 98.4453 104.097 95.1871 110.327 93.558C110.583 93.4912 110.834 93.4263 111.081 93.3626L111.318 93.3017C114.965 92.3622 117.612 91.68 119.021 89.6086ZM170.841 114.194C170.303 110.162 170.156 107.99 170.075 104.501C168.15 110.936 163.387 115.741 155.003 115.741C145.314 115.741 136.474 109.306 136.474 95.6483C136.474 81.9901 145.771 75.5559 154.318 75.5559C160.924 75.5559 166.241 78.8141 170.075 83.5369V67.7888C170.075 62.6711 170.074 59.6433 169.145 52.123H179.209V98.9723C179.209 104.09 179.209 107.036 180.432 114.177H170.841V114.194ZM170.075 96.8331V85.5939C166.926 81.4141 162.164 77.761 157.156 77.761C150.615 77.761 146.473 84.1951 146.473 95.6812C146.473 105.374 149.784 113.289 158.086 113.289C165.377 113.272 170.075 106.904 170.075 96.8331ZM209.449 115.757C220.133 115.757 226.201 109.619 228.973 100.009V99.9926H227.669C224.977 108.763 219.366 113.256 212.287 113.256C202.533 113.256 197.607 104.814 197.607 94.9571C197.607 93.6407 197.673 92.4888 197.754 91.3204H227.049C226.984 83.0103 220.296 75.5724 208.683 75.5724C197.673 75.5724 187.609 82.9445 187.609 95.6647C187.609 108.467 197.461 115.757 209.449 115.757ZM217.344 89.8559H197.901C198.978 81.4635 202.909 77.0534 208.503 77.0534C214.652 77.0534 217.344 82.4015 217.344 89.8559ZM281.87 98.528V86.6635C281.87 81.3154 281.022 78.4356 277.955 78.4356C273.959 78.4356 270.73 82.5496 267.892 87.585C267.973 88.1278 267.973 88.6707 267.973 89.2957V89.2964V98.528C267.973 103.646 267.973 106.674 268.658 114.194H258.121C258.806 106.674 258.806 103.646 258.806 98.528V86.6635C258.806 81.3154 257.958 78.4356 254.957 78.4356C250.732 78.4356 247.503 82.7799 244.893 88.0458V92.3901V98.9888V98.9895C244.893 104.107 244.893 107.908 245.578 114.194H234.976C235.743 107.908 235.743 104.107 235.743 98.9888V92.4065C235.743 87.2888 235.743 83.4053 234.976 77.1192H245.578C245.187 80.3774 245.04 83.0103 244.958 85.4951C247.421 80.7559 251.793 75.5724 258.252 75.5724C263.553 75.5724 266.864 78.666 267.712 85.4951C270.403 80.7559 274.856 75.5724 281.315 75.5724C287.546 75.5724 291.004 79.8344 291.004 89.2964V98.528C291.004 103.646 291.004 106.674 291.689 114.194H281.087C281.87 106.674 281.87 103.646 281.87 98.5286V98.528ZM331.537 83.1748C332.466 80.4596 332.842 79.3735 334 77.1191V77.1026H331.537C331.472 77.4228 331.413 77.7195 331.358 78.0003C331.022 79.6968 330.801 80.8171 330.003 83.076L319.776 112.4L308.554 83.076L308.459 82.8218C307.671 80.7313 307.235 79.5714 306.858 77.1026H295.408C296.941 79.5874 297.561 80.9039 298.409 83.1583L310.251 114.177H319.173L319.091 114.49C316.237 122.718 312.159 126.519 308.245 126.519C305.553 126.519 304.248 125.038 302.862 122.175C300.856 117.913 295.245 119.772 296.093 124.199C298.931 126.766 303.09 128 306.777 128C313.692 128 317.46 123.738 320.771 114.194L331.537 83.1748Z" fill="#F5FCFA"/>
</svg>
