<svg width="34" height="24" viewBox="0 0 34 24" fill="none" xmlns="http://www.w3.org/2000/svg">
<rect x="0.5" y="0.5" width="33" height="23" rx="3.5" fill="white" stroke="#BDDFDC"/>
<path d="M18.6909 11.7058C18.6909 15.4092 15.8104 18.4115 12.2571 18.4115C8.70377 18.4115 5.82324 15.4092 5.82324 11.7058C5.82324 8.00227 8.70377 5 12.2571 5C15.8104 5 18.6909 8.00227 18.6909 11.7058Z" fill="#ED0006"/>
<path d="M27.0376 11.7058C27.0376 15.4092 24.1571 18.4115 20.6038 18.4115C17.0504 18.4115 14.1699 15.4092 14.1699 11.7058C14.1699 8.00227 17.0504 5 20.6038 5C24.1571 5 27.0376 8.00227 27.0376 11.7058Z" fill="#0099DF"/>
<path fill-rule="evenodd" clip-rule="evenodd" d="M16.4304 6.60193C17.8138 7.83189 18.6909 9.66205 18.6909 11.7057C18.6909 13.7494 17.8138 15.5796 16.4304 16.8096C15.0471 15.5796 14.1699 13.7494 14.1699 11.7057C14.1699 9.66205 15.0471 7.83189 16.4304 6.60193Z" fill="#6C6BBD"/>
</svg>
