<svg width="49" height="49" viewBox="0 0 49 49" fill="none" xmlns="http://www.w3.org/2000/svg">
<g clip-path="url(#clip0_1508_3735)">
<path d="M47.9453 43.9812H45.2365C45.863 43.1254 46.1212 42.0399 45.9216 40.9625C45.8136 40.3813 45.5789 39.847 45.2474 39.3871C45.8414 39.2501 46.4105 38.981 46.9093 38.5818C47.1917 38.3558 47.3568 38.0186 47.3627 37.6571C47.3685 37.2953 47.2144 36.9529 46.9393 36.7178L40.4314 31.1539C39.9524 30.7441 39.5931 30.212 39.3928 29.6144L37.8723 25.0741C37.8719 25.0726 37.8712 25.0712 37.8708 25.0697L36.5016 20.9824C35.8809 19.129 34.397 17.673 32.5322 17.0874L27.8169 15.6064C29.0972 14.7037 29.9358 13.2144 29.9358 11.532V8.25916C29.9358 5.51074 27.6997 3.27502 24.9517 3.27502C22.2036 3.27502 19.9675 5.51074 19.9675 8.25916V11.5323C19.9675 13.1371 20.7307 14.5664 21.9125 15.4783C21.7902 15.512 21.6682 15.5475 21.5466 15.5856L16.7646 17.0874C14.8999 17.673 13.416 19.129 12.7953 20.9824L9.90369 29.6144C9.70337 30.212 9.34448 30.7445 8.86548 31.1539L2.35754 36.7181C2.08252 36.9532 1.92834 37.2953 1.9342 37.6571C1.94006 38.0189 2.10522 38.3558 2.38757 38.5818C2.90906 38.9993 3.50708 39.2747 4.13037 39.405C3.54187 40.4879 3.43018 41.8085 3.88391 43.0056C4.02161 43.3678 4.20288 43.6941 4.42114 43.9816H1.35156C0.963013 43.9816 0.648438 44.2961 0.648438 44.6847C0.648438 45.0729 0.963013 45.3878 1.35156 45.3878H43.4351H43.4358H43.4365H47.9453C48.3339 45.3878 48.6484 45.0729 48.6484 44.6847C48.6484 44.2961 48.3335 43.9812 47.9453 43.9812ZM31.9437 27.5786L34.427 33.7577C34.4409 33.7921 34.4574 33.8254 34.4764 33.8573C34.9159 34.589 35.5417 35.1951 36.287 35.6107L37.1102 36.0696L31.9437 34.4919V27.5786ZM39.5173 32.2229L45.837 37.6256C44.9896 38.1918 43.8987 38.2419 42.996 37.7402L36.9718 34.3824C36.4565 34.0953 36.0211 33.6797 35.7098 33.1791L33.4965 27.6713L36.7792 26.2383L38.0594 30.0608C38.3407 30.9001 38.845 31.6476 39.5173 32.2229ZM21.3738 11.5323V8.25916C21.3738 6.28638 22.9789 4.68127 24.9517 4.68127C26.9244 4.68127 28.5295 6.28638 28.5295 8.25916V11.5323C28.5295 13.5051 26.9244 15.1102 24.9517 15.1102C22.9789 15.1102 21.3738 13.5051 21.3738 11.5323ZM17.1858 18.4288L21.9681 16.9274C23.7216 16.3766 25.5753 16.3766 27.3287 16.9274L32.1111 18.4288C33.5474 18.88 34.6903 20.0013 35.1682 21.4292L36.3309 24.8998L32.9717 26.3657L31.8928 23.6814C31.7672 23.369 31.438 23.1892 31.1069 23.2533C30.7762 23.3174 30.5375 23.6071 30.5375 23.9436V34.3092H18.7594V23.9436C18.7594 23.6071 18.5206 23.3174 18.1899 23.2533C17.86 23.1892 17.5297 23.369 17.4041 23.6814L16.4702 26.0046L13.152 24.3453L14.1287 21.4292C14.6066 20.0013 15.7495 18.88 17.1858 18.4288ZM9.77917 32.2229C10.4519 31.6476 10.9562 30.9001 11.2371 30.0608L12.7004 25.6919L15.944 27.3138L15.4327 28.5857C15.2881 28.946 15.4628 29.3555 15.8231 29.5005C16.1831 29.6451 16.5929 29.4705 16.7375 29.1101L17.3531 27.579V34.4897L12.2881 36.0132L13.0095 35.6107C13.7548 35.1954 14.381 34.5894 14.8204 33.8577C14.8395 33.8258 14.856 33.7925 14.8699 33.7577L15.3954 32.4496C15.5404 32.0892 15.3657 31.6798 15.0054 31.5352C14.645 31.3901 14.2356 31.5648 14.0906 31.9252L13.5867 33.1791C13.2754 33.6801 12.8403 34.0953 12.3251 34.3824L6.30164 37.7399C5.39819 38.2419 4.30762 38.1918 3.45984 37.6256L9.77917 32.2229ZM7.36841 43.9812H7.36584C6.34412 43.9812 5.55457 43.444 5.19897 42.5068C4.79688 41.4463 5.07227 40.196 5.86584 39.4127L18.1595 35.7155H31.1359L42.807 39.2794C43.7178 39.5574 44.3652 40.2825 44.5388 41.2189C44.7124 42.1553 44.3682 43.0642 43.6174 43.6501L43.1937 43.9816H28.3453C28.2545 43.4886 28.0355 42.8331 27.5173 42.2498L28.9181 42.1725C29.3059 42.1512 29.6029 41.8195 29.5813 41.4316C29.5601 41.0442 29.2283 40.7476 28.8408 40.7684L25.03 40.979C24.8689 40.9501 24.7008 40.9259 24.5243 40.908L13.6797 39.7753C13.2908 39.7346 12.9476 40.0155 12.9073 40.4015C12.8671 40.7878 13.1476 41.1335 13.5336 41.1738L24.3789 42.3065C24.543 42.3234 24.6971 42.3464 24.8414 42.3743C24.8444 42.375 24.8477 42.3754 24.8506 42.3761C26.2543 42.6515 26.7479 43.4154 26.9182 43.9812H7.36841Z" fill="#F5FCFA"/>
<path d="M32.5252 41.9722C32.5381 41.9722 32.5512 41.9722 32.5644 41.9715L37.3065 41.7096C37.694 41.688 37.9909 41.3566 37.9697 40.9688C37.9485 40.581 37.6163 40.2836 37.2289 40.3056L32.4872 40.5674C32.0993 40.5887 31.8023 40.9205 31.8236 41.3079C31.8445 41.6825 32.1543 41.9722 32.5252 41.9722Z" fill="#F5FCFA"/>
</g>
<defs>
<clipPath id="clip0_1508_3735">
<rect width="48" height="48" fill="white" transform="translate(0.648438 0.368774)"/>
</clipPath>
</defs>
</svg>
