<svg width="206" height="29" viewBox="0 0 206 29" fill="none" xmlns="http://www.w3.org/2000/svg">
<path fill-rule="evenodd" clip-rule="evenodd" d="M151.143 0.896973V22.5546H153.838V0.896973H151.143ZM1.99203 1.49751C0.92051 1.49751 0.125 2.29303 0.125 3.33207C0.125 4.35489 0.95298 5.13417 1.99203 5.13417C3.03107 5.13417 3.85908 4.37113 3.85908 3.36455C3.85908 2.32551 3.03107 1.49751 1.99203 1.49751ZM0.628284 9.42023V22.5707H3.32332V9.42023H0.628284ZM10.5803 9.42028H7.88529V22.5382H10.5803V16.0117C10.5803 13.1706 12.1389 11.2549 14.4443 11.2549C16.5711 11.2549 17.5452 12.4075 17.5452 15.1026V22.5545H20.2402V14.0473C20.2402 10.7191 18.4381 8.85206 15.3047 8.85206C13.3565 8.85206 11.6681 9.85863 10.5803 11.6932V9.42028ZM23.4391 20.2004L25.3548 18.9016L25.5009 18.934C26.2477 20.2329 27.3679 20.9797 28.7804 20.9797C30.2903 20.9797 31.1994 20.2978 31.1994 19.2588C31.1994 18.4308 30.7611 17.8138 28.2771 16.9209C24.819 15.687 23.9586 14.4045 23.9586 12.6024C23.9586 10.5567 25.7282 8.85206 28.7155 8.85206C31.0533 8.85206 32.8554 9.93981 33.5697 11.6607L31.8813 12.8134L31.6215 12.7809C31.1182 11.6607 30.1117 11.0113 28.7479 11.0113C27.3842 11.0113 26.6211 11.6932 26.6211 12.5537C26.6211 13.3167 26.9783 13.8525 29.5759 14.859C32.8554 16.0929 33.8945 17.2456 33.8945 19.2263C33.8945 21.4505 31.8813 23.1227 28.8129 23.1227C26.3938 23.1227 24.4943 22.0999 23.4391 20.2004ZM37.3199 9.42028V28.9998H40.0149V24.6813V20.4277C41.0215 22.1161 42.9048 23.1227 44.7718 23.1227C48.376 23.1227 51.0061 20.103 51.0061 15.8819C51.0061 11.6283 48.5221 8.85206 44.9504 8.85206C42.9048 8.85206 41.1676 9.85863 40.0149 11.6932V9.42028H37.3199ZM44.236 11.2711C46.7525 11.2711 48.2299 12.992 48.2299 15.9143C48.2299 18.8691 46.6875 20.7037 44.1711 20.6874C41.6384 20.6874 39.9175 18.8042 39.9175 15.9955C39.9175 13.2518 41.7196 11.2711 44.236 11.2711ZM54.0414 3.33207C54.0414 2.29303 54.8369 1.49751 55.9084 1.49751C56.9475 1.49751 57.7755 2.32551 57.7755 3.36455C57.7755 4.37113 56.9475 5.13417 55.9084 5.13417C54.8694 5.13417 54.0414 4.35489 54.0414 3.33207ZM54.5447 22.5707V9.42023H57.2397V22.5707H54.5447ZM61.8184 9.42028V22.5545H64.5297V16.4338C64.5297 13.1868 66.0071 11.2873 67.452 11.2873C68.1177 11.2873 68.5398 11.5633 68.8645 12.3264L69.1242 12.3913L71.3647 11.0925C70.8614 9.56639 69.8223 8.85206 68.5235 8.85206C66.7864 8.85206 65.3902 9.76122 64.2699 11.9854V9.42028H61.8184ZM84.9363 20.8173V22.7168C84.222 22.9603 83.7511 23.0415 82.9556 23.0415C81.5919 23.0415 80.8288 22.3271 80.7152 21.142C79.319 22.5382 78.0201 23.1226 76.3479 23.1226C73.9776 23.1226 72.5002 21.7102 72.5002 19.5834C72.5002 17.1644 74.7407 15.4759 80.5366 14.6804V13.8849C80.5366 12.0178 79.7735 11.1899 78.3124 11.1899C76.835 11.1899 75.6011 11.9854 74.6108 13.4141L74.3672 13.4465L72.5976 12.2614C73.8315 10.1995 76.0882 8.86823 78.5397 8.86823C81.4945 8.86823 83.2154 10.4593 83.2154 13.4141V20.1516C83.2154 20.7361 83.394 20.9147 83.8648 20.9147C84.1245 20.9147 84.3031 20.8497 84.6928 20.7036L84.9363 20.8173ZM77.0948 21.0608C78.3936 21.0608 79.5463 20.4926 80.5204 19.5509V16.45C76.6239 17.0994 75.1953 17.9599 75.1953 19.4048C75.2115 20.4601 75.8609 21.0608 77.0948 21.0608ZM87.0643 26.6782L88.98 27.4412L92.6816 19.7133L90.1327 18.7067L89.8405 18.8204L87.0643 26.6782ZM107.326 16.45V16.5961C107.326 19.2262 109.095 20.8497 111.433 20.8497C113.057 20.8497 114.209 20.1029 115.216 18.5443L115.46 18.4794L117.473 19.5996C116.174 21.8725 114.047 23.1226 111.352 23.1226C107.245 23.1226 104.501 20.2003 104.501 15.9954C104.501 11.7093 107.277 8.83571 111.206 8.83571C115.07 8.83571 117.684 11.4658 117.684 15.9305C117.684 16.109 117.684 16.1902 117.651 16.4337H107.326V16.45ZM107.391 14.5505H114.891C114.745 12.3587 113.333 11.0599 111.222 11.0599C109.225 11.0762 107.748 12.3425 107.391 14.5505ZM121.952 18.9016L120.037 20.2004C121.092 22.0999 122.991 23.1227 125.41 23.1227C128.479 23.1227 130.492 21.4505 130.492 19.2263C130.492 17.2456 129.453 16.0929 126.173 14.859C123.576 13.8525 123.219 13.3167 123.219 12.5537C123.219 11.6932 123.982 11.0113 125.345 11.0113C126.709 11.0113 127.716 11.6607 128.219 12.7809L128.479 12.8134L130.167 11.6607C129.453 9.93981 127.651 8.85206 125.313 8.85206C122.326 8.85206 120.556 10.5567 120.556 12.6024C120.556 14.4045 121.417 15.687 124.875 16.9209C127.359 17.8138 127.797 18.4308 127.797 19.2588C127.797 20.2978 126.888 20.9797 125.378 20.9797C123.965 20.9797 122.845 20.2329 122.098 18.934L121.952 18.9016ZM133.918 28.9998V9.42028H136.613V11.6932C137.766 9.85863 139.503 8.85206 141.549 8.85206C145.12 8.85206 147.604 11.6283 147.604 15.8819C147.604 20.103 144.974 23.1227 141.37 23.1227C139.503 23.1227 137.62 22.1161 136.613 20.4277V24.6813V28.9998H133.918ZM144.828 15.9143C144.828 12.992 143.351 11.2711 140.834 11.2711C138.318 11.2711 136.516 13.2518 136.516 15.9955C136.516 18.8042 138.237 20.6874 140.769 20.6874C143.286 20.7037 144.828 18.8691 144.828 15.9143ZM157.394 15.9793C157.394 11.953 160.495 8.85206 164.667 8.85206C168.84 8.85206 171.941 11.953 171.941 15.9793C171.941 20.0056 168.807 23.1389 164.667 23.1389C160.511 23.1227 157.394 19.9893 157.394 15.9793ZM169.148 15.9793C169.148 13.3492 167.233 11.2873 164.651 11.2873C162.086 11.2873 160.154 13.3492 160.154 15.9793C160.154 18.6418 162.102 20.7037 164.651 20.7037C167.2 20.7037 169.148 18.6418 169.148 15.9793ZM175.447 9.42028V22.5545H178.158V16.4338C178.158 13.1868 179.636 11.2873 181.081 11.2873C181.746 11.2873 182.168 11.5633 182.493 12.3264L182.753 12.3913L184.993 11.0925C184.49 9.56639 183.451 8.85206 182.152 8.85206C180.415 8.85206 179.019 9.76122 177.899 11.9854V9.42028H175.447ZM198.55 20.8173V22.7168C197.835 22.9603 197.365 23.0415 196.569 23.0415C195.205 23.0415 194.442 22.3271 194.329 21.142C192.932 22.5382 191.634 23.1226 189.961 23.1226C187.591 23.1226 186.114 21.7102 186.114 19.5834C186.114 17.1644 188.354 15.4759 194.15 14.6804V13.8849C194.15 12.0178 193.387 11.1899 191.926 11.1899C190.448 11.1899 189.215 11.9854 188.224 13.4141L187.981 13.4465L186.211 12.2614C187.445 10.1995 189.702 8.86823 192.153 8.86823C195.108 8.86823 196.829 10.4593 196.829 13.4141V20.1516C196.829 20.7361 197.007 20.9147 197.478 20.9147C197.738 20.9147 197.917 20.8497 198.306 20.7036L198.55 20.8173ZM190.724 21.0608C192.023 21.0608 193.176 20.4926 194.15 19.5509V16.45C190.254 17.0994 188.825 17.9599 188.825 19.4048C188.825 20.4601 189.474 21.0608 190.724 21.0608ZM203.437 19.0639C202.366 19.0639 201.538 19.8919 201.538 20.9634C201.538 22.0025 202.366 22.863 203.437 22.863C204.525 22.863 205.353 22.0025 205.353 20.9634C205.353 19.8919 204.509 19.0639 203.437 19.0639Z" fill="#F5FCFA"/>
</svg>
