<svg width="16" height="20" viewBox="0 0 16 20" fill="none" xmlns="http://www.w3.org/2000/svg">
<path d="M13.9572 13.9429L12.3858 12.3714C13.4001 10.4714 13.1429 8.07143 11.5429 6.47143C11.0792 6.00386 10.5272 5.63302 9.91903 5.38044C9.31086 5.12785 8.65859 4.99854 8.00005 5C7.95719 5 7.91434 5.01429 7.87148 5.01429L9.42862 6.57143L7.91434 8.08571L3.87148 4.04286L7.91434 0L9.42862 1.51429L8.05719 2.88571C9.87148 2.9 11.6715 3.57143 13.0572 4.94286C15.4858 7.38571 15.7858 11.1714 13.9572 13.9429ZM12.1286 15.9571L8.08577 20L6.57148 18.4857L7.92862 17.1286C6.06171 17.114 4.27566 16.3647 2.95719 15.0429C1.79439 13.8788 1.06853 12.3495 0.901979 10.7126C0.735431 9.07574 1.13839 7.43151 2.04291 6.05714L3.61434 7.62857C2.60005 9.52857 2.8572 11.9286 4.4572 13.5286C5.4572 14.5286 6.78577 15.0143 8.11434 14.9714L6.57148 13.4286L8.08577 11.9143L12.1286 15.9571Z" fill="#F5FCFA"/>
</svg>
