<svg width="27" height="28" viewBox="0 0 27 28" fill="none" xmlns="http://www.w3.org/2000/svg">
<path d="M24.1147 22.0004C23.4512 21.3649 22.8055 20.7111 22.1782 20.0399C21.6512 19.5044 21.3339 19.1148 21.3339 19.1148L17.3675 17.2209C18.9555 15.4199 19.8319 13.1014 19.8324 10.7004C19.8324 5.23378 15.3843 0.784302 9.9163 0.784302C4.4483 0.784302 0.000244141 5.23378 0.000244141 10.7004C0.000244141 16.1669 4.4483 20.6164 9.9163 20.6164C12.4137 20.6164 14.6902 19.6815 16.4368 18.153L18.3308 22.1194C18.3308 22.1194 18.7203 22.4367 19.2558 22.9637C19.804 23.4779 20.5251 24.1734 21.2164 24.9001L23.1401 26.872L23.9957 27.7871L27.0002 24.7826L26.0851 23.927C25.5483 23.4 24.8315 22.7002 24.1147 22.0004ZM9.9163 17.7833C6.01079 17.7833 2.8334 14.6059 2.8334 10.7004C2.8334 6.79485 6.01079 3.61746 9.9163 3.61746C13.8218 3.61746 16.9992 6.79485 16.9992 10.7004C16.9992 14.6059 13.8218 17.7833 9.9163 17.7833Z" fill="#F5FCFA"/>
</svg>
