<svg width="20" height="16" viewBox="0 0 20 16" fill="none" xmlns="http://www.w3.org/2000/svg">
<path d="M3.46875 12.1562H1.09375C0.936278 12.1562 0.785255 12.2188 0.673905 12.3302C0.562556 12.4415 0.5 12.5925 0.5 12.75L0.5 15.125C0.5 15.2825 0.562556 15.4335 0.673905 15.5448C0.785255 15.6562 0.936278 15.7188 1.09375 15.7188H3.46875C3.62622 15.7188 3.77724 15.6562 3.88859 15.5448C3.99994 15.4335 4.0625 15.2825 4.0625 15.125V12.75C4.0625 12.5925 3.99994 12.4415 3.88859 12.3302C3.77724 12.2188 3.62622 12.1562 3.46875 12.1562ZM3.46875 0.28125H1.09375C0.936278 0.28125 0.785255 0.343806 0.673905 0.455155C0.562556 0.566505 0.5 0.717528 0.5 0.875L0.5 3.25C0.5 3.40747 0.562556 3.55849 0.673905 3.66984C0.785255 3.78119 0.936278 3.84375 1.09375 3.84375H3.46875C3.62622 3.84375 3.77724 3.78119 3.88859 3.66984C3.99994 3.55849 4.0625 3.40747 4.0625 3.25V0.875C4.0625 0.717528 3.99994 0.566505 3.88859 0.455155C3.77724 0.343806 3.62622 0.28125 3.46875 0.28125ZM3.46875 6.21875H1.09375C0.936278 6.21875 0.785255 6.28131 0.673905 6.39266C0.562556 6.504 0.5 6.65503 0.5 6.8125L0.5 9.1875C0.5 9.34497 0.562556 9.496 0.673905 9.60735C0.785255 9.71869 0.936278 9.78125 1.09375 9.78125H3.46875C3.62622 9.78125 3.77724 9.71869 3.88859 9.60735C3.99994 9.496 4.0625 9.34497 4.0625 9.1875V6.8125C4.0625 6.65503 3.99994 6.504 3.88859 6.39266C3.77724 6.28131 3.62622 6.21875 3.46875 6.21875ZM18.9062 12.75H7.03125C6.87378 12.75 6.72275 12.8126 6.61141 12.9239C6.50006 13.0353 6.4375 13.1863 6.4375 13.3438V14.5312C6.4375 14.6887 6.50006 14.8397 6.61141 14.9511C6.72275 15.0624 6.87378 15.125 7.03125 15.125H18.9062C19.0637 15.125 19.2147 15.0624 19.3261 14.9511C19.4374 14.8397 19.5 14.6887 19.5 14.5312V13.3438C19.5 13.1863 19.4374 13.0353 19.3261 12.9239C19.2147 12.8126 19.0637 12.75 18.9062 12.75ZM18.9062 0.875H7.03125C6.87378 0.875 6.72275 0.937556 6.61141 1.04891C6.50006 1.16026 6.4375 1.31128 6.4375 1.46875V2.65625C6.4375 2.81372 6.50006 2.96474 6.61141 3.07609C6.72275 3.18744 6.87378 3.25 7.03125 3.25H18.9062C19.0637 3.25 19.2147 3.18744 19.3261 3.07609C19.4374 2.96474 19.5 2.81372 19.5 2.65625V1.46875C19.5 1.31128 19.4374 1.16026 19.3261 1.04891C19.2147 0.937556 19.0637 0.875 18.9062 0.875ZM18.9062 6.8125H7.03125C6.87378 6.8125 6.72275 6.87506 6.61141 6.98641C6.50006 7.09775 6.4375 7.24878 6.4375 7.40625V8.59375C6.4375 8.75122 6.50006 8.90225 6.61141 9.0136C6.72275 9.12494 6.87378 9.1875 7.03125 9.1875H18.9062C19.0637 9.1875 19.2147 9.12494 19.3261 9.0136C19.4374 8.90225 19.5 8.75122 19.5 8.59375V7.40625C19.5 7.24878 19.4374 7.09775 19.3261 6.98641C19.2147 6.87506 19.0637 6.8125 18.9062 6.8125Z" fill="#F5FCFA"/>
</svg>
